Coordinates
version=1
nRows=11
nColumns=40
inDegrees=yes

Units are S.I. units (second, meters, Newtons, ...)
Angles are in degrees.

endheader
time	pelvis_tilt	pelvis_list	pelvis_rotation	pelvis_tx	pelvis_ty	pelvis_tz	hip_flexion_r	hip_adduction_r	hip_rotation_r	knee_angle_r	knee_angle_r_beta	ankle_angle_r	subtalar_angle_r	mtp_angle_r	hip_flexion_l	hip_adduction_l	hip_rotation_l	knee_angle_l	knee_angle_l_beta	ankle_angle_l	subtalar_angle_l	mtp_angle_l	lumbar_extension	lumbar_bending	lumbar_rotation	arm_flex_r	arm_add_r	arm_rot_r	elbow_flex_r	pro_sup_r	wrist_flex_r	wrist_dev_r	arm_flex_l	arm_add_l	arm_rot_l	elbow_flex_l	pro_sup_l	wrist_flex_l	wrist_dev_l
     58.95314286	     -5.50836223	     -2.65435202	     -3.44173636	      0.87395212	      0.92446944	      0.42965729	     27.95162900	     -1.72645551	    -12.91875104	     12.89176829	     12.89176829	      1.75190203	      4.86296485	      8.14738457	      3.04966966	     -2.71284346	    -11.96474316	     13.10378564	     13.10378564	     16.71544494	     -6.14897761	     -4.58955593	    -10.55173479	      4.28679112	      0.95958773	    -13.71150521	    -12.22502076	     -4.37291207	     28.15192394	     46.71019415	      0.00000000	      0.00000000	     17.73010910	    -18.61562428	     -7.21168613	     80.66918956	     47.54485793	      0.00000000	      0.00000000
     58.96628571	     -5.66854605	     -2.61017307	     -3.43114671	      0.87543585	      0.92296210	      0.43129993	     27.82275423	     -1.66915971	    -13.25682193	     12.73547040	     12.73547040	      1.79585116	      4.90378049	      8.15573136	      2.43387935	     -2.71204763	    -11.99123037	     12.72291586	     12.72291586	     17.07852371	     -5.92250895	     -4.75983259	    -10.19940854	      4.29748298	      0.82442910	    -13.95019239	    -12.27250661	     -4.40926764	     28.12478147	     46.71023365	      0.00000000	      0.00000000	     18.26142158	    -18.77875054	     -7.30748825	     81.11440729	     47.56443052	      0.00000000	      0.00000000
     58.97942857	     -5.50459309	     -2.53171820	     -3.50683385	      0.87746645	      0.92217461	      0.43310876	     27.26571812	     -1.67522923	    -13.69250832	     12.82454660	     12.82454660	      1.70848647	      5.14093758	      7.70717870	      0.99652728	     -2.59187878	    -12.44427196	     11.50605002	     11.50605002	     17.17725423	     -4.95214927	     -4.96676406	    -10.26705685	      4.23545612	      1.05691859	    -14.16776927	    -12.22141404	     -4.51652519	     28.30740918	     46.70112607	      0.00000000	      0.00000000	     18.52562198	    -18.68063104	     -7.33401092	     82.34947445	     47.59818581	      0.00000000	      0.00000000
     58.99257143	     -5.54348489	     -2.54018399	     -3.43987806	      0.87930961	      0.92086269	      0.43502084	     26.94796986	     -1.60112939	    -13.89234703	     13.12216848	     13.12216848	      0.54643559	      4.43733180	      4.28067477	      0.23988727	     -2.70113507	    -12.69531660	     11.13143656	     11.13143656	     17.40789206	     -4.35080843	     -5.56379162	    -10.12567993	      4.29195136	      0.64928848	    -14.13537550	    -12.23939803	     -4.94377657	     29.09515902	     46.66207046	      0.00000000	      0.00000000	     18.22242681	    -19.06346784	     -7.72206228	     83.98799129	     47.69433948	      0.00000000	      0.00000000
     59.00571429	     -5.55344056	     -2.59793725	     -3.38931604	      0.88131592	      0.91978202	      0.43708941	     26.82645489	     -1.52977369	    -13.89456617	     14.12173518	     14.12173518	      0.53704867	      3.63595718	      3.49798173	     -0.53196754	     -2.84426078	    -12.70422856	     10.81503029	     10.81503029	     17.70439380	     -4.10500160	     -5.44772817	     -9.90603445	      4.39895172	      0.61426698	    -13.96439441	    -12.26896633	     -4.93760066	     29.08004381	     46.65703721	      0.00000000	      0.00000000	     18.46372127	    -18.95736297	     -7.75931211	     84.11163434	     47.70832766	      0.00000000	      0.00000000
     59.01885714	     -5.52926602	     -2.70912290	     -3.27615537	      0.88335852	      0.91880836	      0.43935452	     26.49610723	     -1.28708138	    -13.48692475	     14.77298458	     14.77298458	     -0.50617341	      1.88143751	      0.00943163	     -1.11324268	     -3.15603761	    -12.87940503	     10.98000046	     10.98000046	     18.49166301	     -3.45574017	     -4.57260388	     -9.76628215	      4.56032301	      0.38991661	    -13.53385760	    -12.30049400	     -4.97728227	     29.09926449	     46.62771958	      0.00000000	      0.00000000	     18.37929758	    -18.97783579	     -7.95572036	     84.58010314	     47.76940101	      0.00000000	      0.00000000
     59.03200000	     -5.51011889	     -2.96901410	     -3.14230623	      0.88540332	      0.91818692	      0.44166053	     26.19786449	     -1.01878254	    -13.67060213	     15.64928763	     15.64928763	     -0.28882968	      1.43923609	     -0.30364259	     -1.69468719	     -3.60555800	    -12.74111395	     11.06634837	     11.06634837	     18.71632594	     -3.46901137	     -4.56267273	     -9.62115212	      4.90977158	      0.33745704	    -13.05706246	    -12.32296063	     -4.98055717	     29.26614188	     46.62357136	      0.00000000	      0.00000000	     18.39086716	    -18.76212907	     -7.85205839	     84.57105547	     47.76429935	      0.00000000	      0.00000000
     59.04514286	     -5.48629316	     -2.98283777	     -3.02015886	      0.88730199	      0.91753452	      0.44410735	     26.30822498	     -0.96829034	    -13.18257500	     17.18415779	     17.18415779	      0.01300249	     -0.03896857	     -1.08481201	     -1.99746659	     -3.88165637	    -12.73905669	     11.67493547	     11.67493547	     19.10909909	     -3.36130876	     -4.29738285	     -9.51413426	      4.94010864	      0.14759206	    -12.49076435	    -12.40783394	     -5.03122877	     29.53375141	     46.61320465	      0.00000000	      0.00000000	     18.25012316	    -18.79479584	     -7.90701746	     84.44020504	     47.77306710	      0.00000000	      0.00000000
     59.05828571	     -5.34755048	     -3.23899651	     -2.90330589	      0.88931204	      0.91759338	      0.44671730	     25.88975405	     -0.63572385	    -13.10959042	     17.98109637	     17.98109637	      0.40177817	     -0.56075646	     -1.42084873	     -2.47005149	     -4.41163669	    -12.60765204	     12.19236250	     12.19236250	     19.22360472	     -3.50093527	     -4.21682527	     -9.56387780	      5.25433954	      0.11294712	    -11.79396006	    -12.46997307	     -5.05187660	     29.81256640	     46.60713684	      0.00000000	      0.00000000	     18.01516509	    -18.47504894	     -7.75545533	     84.29600929	     47.76112494	      0.00000000	      0.00000000
     59.07142857	     -5.36115214	     -3.38537101	     -2.73951079	      0.89101566	      0.91748990	      0.44949799	     25.82612519	     -0.33517469	    -12.58564832	     19.01405388	     19.01405388	      0.89875750	     -1.96867806	     -1.81393367	     -2.26348718	     -4.98340674	    -12.49231805	     13.65413573	     13.65413573	     19.57585105	     -3.74997491	     -4.02060927	     -9.46507153	      5.38221293	     -0.18132599	    -11.00794366	    -12.58271372	     -5.14128185	     30.32464455	     46.59225867	      0.00000000	      0.00000000	     17.72351300	    -18.58069733	     -7.83811164	     83.85014885	     47.76303178	      0.00000000	      0.00000000
     59.08457143	     -5.41280643	     -3.59581697	     -2.61016665	      0.89268327	      0.91783123	      0.45239514	     25.57909498	      0.09041688	    -12.13919589	     19.56274506	     19.56274506	      1.32701765	     -3.04369893	     -1.93266698	     -1.93054539	     -5.66587548	    -12.42940093	     15.26608379	     15.26608379	     19.81577259	     -3.93109149	     -3.67408362	     -9.32188242	      5.62620960	     -0.40537382	    -10.09694510	    -12.64251159	     -5.22853786	     31.07988606	     46.56448235	      0.00000000	      0.00000000	     17.15101075	    -18.31573253	     -7.83642099	     83.26940816	     47.75786577	      0.00000000	      0.00000000
